<?xml version="1.0" standalone="no"?>
<!DOCTYPE svg PUBLIC "-//W3C//DTD SVG 20010904//EN"
 "http://www.w3.org/TR/2001/REC-SVG-20010904/DTD/svg10.dtd">
<svg version="1.0" xmlns="http://www.w3.org/2000/svg"
 width="512.000000pt" height="512.000000pt" viewBox="0 0 512.000000 512.000000"
 preserveAspectRatio="xMidYMid meet">

<g transform="translate(0.000000,512.000000) scale(0.100000,-0.100000)"
fill="#000000" stroke="none">
<path d="M900 2560 l0 -2560 1660 0 1660 0 0 2560 0 2560 -1660 0 -1660 0 0
-2560z m1672 451 l638 -954 0 956 0 957 245 0 245 0 0 -1360 0 -1360 -245 0
-245 0 -630 944 c-346 520 -635 948 -640 951 -7 4 -10 -316 -10 -944 l0 -951
-245 0 -245 0 0 1360 0 1360 247 -2 247 -3 638 -954z"/>
</g>
</svg>
