<?xml version="1.0" standalone="no"?>
<!DOCTYPE svg PUBLIC "-//W3C//DTD SVG 20010904//EN"
 "http://www.w3.org/TR/2001/REC-SVG-20010904/DTD/svg10.dtd">
<svg version="1.0" xmlns="http://www.w3.org/2000/svg"
 width="2000.000000pt" height="600.000000pt" viewBox="0 0 2000.000000 600.000000"
 preserveAspectRatio="xMidYMid meet">

<g transform="translate(0.000000,600.000000) scale(0.100000,-0.100000)"
fill="#000000" stroke="none">
<path d="M0 3000 l0 -3000 1950 0 1950 0 0 3000 0 3000 -1950 0 -1950 0 0
-3000z m1962 525 l748 -1120 2 1120 3 1120 288 3 287 2 0 -1595 0 -1595 -284
0 c-226 0 -287 3 -298 13 -7 8 -344 510 -748 1116 l-735 1103 -5 -1114 -5
-1113 -287 -3 -288 -2 0 1595 0 1595 288 -2 287 -3 747 -1120z"/>
<path d="M17750 4078 l0 -663 -70 77 c-168 183 -400 278 -682 278 -300 0 -543
-93 -750 -288 -181 -170 -301 -399 -343 -660 -26 -152 -17 -409 19 -548 31
-123 87 -257 151 -360 61 -98 204 -247 300 -313 196 -136 435 -203 674 -188
262 16 429 92 614 279 48 49 87 88 87 86 0 -2 14 -73 30 -158 16 -85 30 -156
30 -158 0 -1 116 -1 258 0 l257 3 0 1635 0 1635 -287 3 -288 2 0 -662z m-468
-837 c265 -68 438 -275 467 -561 25 -239 -47 -452 -204 -598 -122 -115 -276
-168 -460 -159 -271 13 -478 168 -569 427 -39 111 -48 293 -21 417 51 236 239
429 465 477 96 21 233 20 322 -3z"/>
<path d="M5055 3759 c-223 -32 -441 -138 -605 -296 -254 -242 -373 -553 -356
-928 9 -220 41 -346 128 -517 248 -488 806 -715 1368 -558 405 114 709 461
785 897 20 112 20 354 0 469 -63 371 -289 674 -621 834 -97 47 -222 84 -328
99 -89 13 -284 12 -371 0z m365 -523 c183 -63 311 -213 360 -420 27 -110 29
-314 5 -431 -44 -215 -191 -386 -383 -445 -98 -31 -239 -28 -334 6 -228 83
-349 255 -378 539 -18 181 6 346 70 481 115 240 405 359 660 270z"/>
<path d="M7705 3754 c-86 -16 -203 -62 -292 -116 -71 -42 -199 -169 -238 -236
-16 -29 -33 -52 -36 -52 -3 0 -13 69 -23 153 -9 83 -20 167 -23 185 l-5 32
-254 0 -254 0 0 -1130 0 -1130 288 2 287 3 5 665 c6 656 6 666 29 740 33 109
77 185 151 260 101 103 220 150 375 150 202 -1 336 -74 414 -227 66 -133 64
-107 70 -883 l6 -705 288 -3 288 -2 -4 762 c-3 739 -4 766 -25 858 -82 361
-273 575 -587 660 -107 29 -344 36 -460 14z"/>
<path d="M9804 3754 c-100 -16 -259 -66 -334 -104 -79 -41 -188 -119 -249
-181 -123 -125 -198 -276 -226 -456 l-7 -43 285 0 285 0 7 33 c18 84 92 175
186 230 58 34 186 67 260 67 198 0 361 -85 429 -223 28 -59 49 -158 50 -238
l0 -36 -377 -6 c-407 -6 -508 -16 -663 -63 -261 -80 -443 -256 -496 -480 -20
-87 -20 -249 1 -329 52 -204 199 -361 416 -448 204 -81 564 -82 761 -2 122 49
264 169 343 288 21 31 40 56 42 54 2 -2 15 -80 29 -173 13 -93 28 -172 33
-177 4 -4 115 -6 247 -5 l239 3 0 760 c0 683 -2 769 -17 845 -30 145 -90 277
-172 374 -137 165 -376 282 -646 316 -106 13 -331 10 -426 -6z m660 -1361
c-34 -186 -135 -362 -255 -442 -88 -59 -168 -81 -295 -81 -230 0 -364 100
-364 273 0 112 56 193 167 244 81 37 118 41 446 42 l308 1 -7 -37z"/>
<path d="M12192 3759 c-157 -20 -338 -87 -472 -174 -99 -64 -245 -210 -309
-310 -139 -212 -194 -411 -194 -690 1 -155 11 -230 48 -361 108 -378 411 -676
783 -770 277 -70 577 -52 827 50 220 89 417 271 524 484 32 63 91 231 91 258
0 12 -49 14 -302 14 l-303 0 -35 -77 c-79 -176 -247 -273 -474 -273 -256 0
-467 175 -542 450 -26 93 -26 368 -1 460 64 236 232 405 444 446 143 28 299
-2 417 -81 85 -56 136 -123 175 -227 l11 -28 305 0 c168 0 305 3 305 8 0 27
-48 170 -79 238 -179 382 -552 597 -1026 593 -71 -1 -158 -5 -193 -10z"/>
<path d="M14535 3764 c-11 -3 -56 -12 -100 -20 -271 -51 -502 -192 -634 -389
-73 -108 -113 -211 -136 -347 l-6 -38 285 0 286 0 6 28 c13 53 57 126 103 171
184 179 550 172 719 -14 61 -67 91 -146 99 -266 l6 -86 -379 -6 c-393 -7 -493
-15 -642 -57 -253 -71 -433 -229 -503 -441 -21 -63 -24 -93 -24 -209 0 -150
10 -191 73 -313 47 -92 107 -156 205 -220 157 -103 300 -139 547 -140 224 0
345 31 485 124 80 54 191 167 232 237 14 23 28 40 31 37 3 -3 17 -83 31 -178
l26 -172 248 -3 247 -2 0 743 c0 820 -2 847 -63 1016 -92 257 -322 443 -637
517 -87 21 -138 26 -295 29 -104 2 -199 2 -210 -1z m605 -1353 c0 -44 -54
-201 -93 -269 -81 -143 -170 -217 -311 -257 -44 -13 -86 -16 -175 -13 -101 3
-124 7 -176 31 -33 16 -71 38 -83 50 -67 62 -97 173 -72 262 16 55 86 137 143
166 78 40 146 47 465 48 290 1 302 0 302 -18z"/>
<path d="M8520 350 l0 -320 55 0 55 0 0 131 c0 144 11 185 56 210 38 20 91 16
115 -8 28 -28 38 -85 39 -220 l0 -113 56 0 56 0 -4 162 c-3 141 -6 168 -24
202 -30 58 -64 79 -132 84 -62 4 -104 -10 -143 -49 -19 -19 -19 -18 -19 111
l0 130 -55 0 -55 0 0 -320z"/>
<path d="M13000 350 l0 -320 55 0 55 0 0 320 0 320 -55 0 -55 0 0 -320z"/>
<path d="M4200 340 l0 -310 196 0 195 0 -3 42 -3 43 -137 3 -138 3 0 264 0
265 -55 0 -55 0 0 -310z"/>
<path d="M7470 647 c0 -2 36 -140 80 -306 44 -167 80 -305 80 -307 0 -2 31 -4
68 -4 l69 0 58 213 c32 116 61 218 65 225 4 8 28 -65 54 -165 26 -98 53 -198
60 -223 l13 -45 69 0 68 0 78 285 c42 157 80 295 83 308 5 21 3 22 -54 22
l-60 0 -10 -37 c-5 -21 -28 -121 -51 -223 -22 -102 -44 -194 -48 -204 -6 -13
-25 45 -62 190 -29 115 -57 224 -62 242 -9 32 -9 32 -72 32 l-63 0 -48 -177
c-84 -317 -82 -310 -88 -288 -4 11 -27 110 -52 220 -24 110 -47 210 -50 223
-5 20 -11 22 -65 22 -33 0 -60 -2 -60 -3z"/>
<path d="M10570 605 l0 -45 90 0 90 0 0 -265 0 -265 55 0 55 0 0 265 0 265 95
0 95 0 0 45 0 45 -240 0 -240 0 0 -45z"/>
<path d="M14310 340 l0 -310 55 0 55 0 2 212 3 213 85 -165 85 -165 47 -3 47
-3 85 168 85 168 0 -212 1 -213 60 0 60 0 0 310 0 310 -70 0 -70 0 -97 -195
-98 -195 -98 195 -98 195 -69 0 -70 0 0 -310z"/>
<path d="M9846 559 c-3 -17 -6 -44 -6 -60 0 -27 -3 -29 -40 -29 l-40 0 0 -44
c0 -44 0 -45 38 -48 l37 -3 5 -136 c4 -119 8 -140 25 -159 30 -34 77 -50 145
-50 l61 0 -3 47 -3 48 -45 3 c-24 2 -50 8 -57 14 -9 7 -13 44 -13 124 l0 114
60 0 60 0 0 45 0 45 -60 0 -60 0 0 60 0 60 -49 0 c-46 0 -49 -1 -55 -31z"/>
<path d="M15885 568 c-2 -13 -6 -39 -7 -58 -3 -33 -6 -35 -40 -38 -38 -3 -38
-4 -38 -48 0 -43 0 -44 34 -44 l34 0 4 -127 c5 -152 17 -182 78 -207 22 -9 65
-16 95 -16 l55 0 0 50 0 50 -43 0 c-24 0 -48 5 -55 12 -8 8 -12 50 -12 125 l0
113 60 0 60 0 0 45 0 45 -60 0 -60 0 0 60 0 60 -50 0 c-43 0 -50 -3 -55 -22z"/>
<path d="M16366 530 l-7 -60 -39 0 -40 0 0 -45 0 -45 40 0 40 0 0 -120 c0
-186 23 -219 156 -228 l74 -5 0 52 0 51 -50 0 c-65 0 -71 13 -68 142 l3 103
58 3 57 3 0 44 0 45 -60 0 -60 0 0 60 0 60 -49 0 -48 0 -7 -60z"/>
<path d="M4901 454 c-153 -77 -161 -314 -13 -401 40 -24 58 -28 124 -28 69 0
80 3 120 30 23 17 53 50 66 73 l23 42 -60 0 c-49 0 -62 -4 -71 -19 -15 -30
-73 -45 -115 -31 -38 13 -75 52 -75 81 0 18 11 19 165 19 l165 0 0 48 c-1 164
-175 262 -329 186z m185 -95 c13 -12 24 -33 24 -46 0 -23 -2 -23 -105 -23 -60
0 -105 4 -105 10 0 24 26 60 54 75 40 20 101 13 132 -16z"/>
<path d="M5550 464 c-42 -18 -77 -49 -96 -86 -25 -49 -20 -58 39 -58 47 0 54
3 68 29 40 70 169 42 169 -36 0 -22 -3 -23 -81 -23 -103 0 -152 -15 -189 -57
-55 -63 -34 -159 43 -194 74 -33 156 -22 208 27 l26 25 6 -30 c6 -30 9 -31 57
-31 l50 0 0 133 c-1 208 -16 251 -100 295 -53 26 -146 29 -200 6z m180 -249
c0 -20 -32 -75 -51 -89 -30 -20 -93 -21 -113 0 -23 22 -20 60 6 78 21 15 158
24 158 11z"/>
<path d="M6252 459 c-23 -12 -47 -30 -53 -40 -14 -26 -29 -15 -29 22 0 28 -1
29 -50 29 l-50 0 0 -220 0 -220 54 0 54 0 4 136 3 136 33 29 c25 23 42 29 77
29 l45 0 0 60 c0 56 -2 60 -22 60 -13 0 -42 -10 -66 -21z"/>
<path d="M6705 462 c-16 -10 -36 -26 -44 -35 -17 -21 -31 -13 -31 19 0 22 -4
24 -50 24 l-50 0 0 -220 0 -220 55 0 55 0 0 125 c0 174 25 226 110 229 31 0
46 -5 67 -27 28 -27 28 -29 31 -177 l4 -150 55 0 55 0 -4 168 c-3 183 -11 211
-71 255 -39 30 -141 35 -182 9z"/>
<path d="M9300 473 c-76 -28 -130 -81 -130 -130 0 -21 5 -23 46 -23 39 0 50 5
78 35 24 25 42 35 64 35 43 0 78 -18 91 -47 22 -48 18 -50 -92 -55 -116 -4
-165 -24 -187 -79 -42 -99 26 -189 143 -189 54 0 113 23 130 52 16 25 25 23
29 -9 3 -26 7 -28 51 -31 l48 -3 -3 173 c-3 164 -4 175 -27 207 -33 46 -92 71
-166 70 -33 0 -67 -3 -75 -6z m145 -289 c-8 -20 -15 -38 -15 -40 0 -2 -13 -10
-30 -19 -79 -41 -162 14 -105 71 21 21 33 24 95 24 l70 0 -15 -36z"/>
<path d="M11435 464 c-16 -8 -42 -27 -57 -42 -27 -25 -28 -25 -28 -5 0 44 -10
53 -61 53 l-49 0 0 -220 0 -220 54 0 54 0 4 127 c2 74 9 137 16 150 17 30 48
46 102 53 l45 5 3 58 c3 57 3 57 -25 57 -15 0 -41 -7 -58 -16z"/>
<path d="M12461 454 c-153 -77 -161 -314 -13 -401 40 -24 58 -28 124 -28 69 0
80 3 120 30 23 17 53 50 66 73 l23 42 -60 0 c-49 0 -62 -4 -71 -19 -15 -30
-73 -45 -115 -31 -38 13 -75 52 -75 81 0 18 11 19 165 19 l165 0 0 48 c-1 164
-175 262 -329 186z m185 -95 c13 -12 24 -33 24 -46 0 -23 -2 -23 -105 -23 -60
0 -105 4 -105 10 0 24 26 60 54 75 40 20 101 13 132 -16z"/>
<path d="M15328 471 c-47 -15 -90 -53 -108 -95 -10 -22 -16 -44 -14 -48 3 -4
25 -8 50 -8 39 0 50 5 78 35 26 27 41 35 69 35 42 0 83 -32 93 -72 l6 -28 -83
0 c-103 0 -154 -13 -190 -49 -54 -55 -43 -146 23 -195 43 -31 137 -34 185 -6
21 12 42 28 46 36 13 24 27 16 27 -16 0 -29 1 -30 50 -30 l50 0 0 157 c0 180
-13 225 -77 264 -39 24 -156 36 -205 20z m158 -278 c-16 -70 -111 -108 -156
-63 -23 23 -25 40 -7 62 17 22 33 26 106 27 l63 1 -6 -27z"/>
<path d="M16937 470 c-109 -33 -176 -181 -136 -301 30 -88 118 -149 214 -149
69 0 146 37 179 86 38 56 35 64 -26 64 -43 0 -57 -5 -81 -27 -41 -41 -105 -39
-146 2 -16 17 -32 40 -36 53 l-6 22 170 0 171 0 0 38 c0 90 -48 169 -125 203
-42 20 -129 24 -178 9z m160 -115 c13 -14 23 -35 23 -46 0 -18 -8 -19 -105
-19 -89 0 -105 2 -105 16 0 77 133 112 187 49z"/>
<path d="M17632 459 c-23 -12 -47 -30 -53 -40 -14 -26 -29 -15 -29 22 0 28 -1
29 -50 29 l-50 0 0 -220 0 -220 54 0 54 0 4 136 3 136 33 29 c25 23 42 29 77
29 l45 0 0 60 c0 56 -2 60 -22 60 -13 0 -42 -10 -66 -21z"/>
<path d="M17983 461 c-47 -22 -72 -54 -79 -102 -10 -68 42 -113 165 -144 76
-19 91 -29 91 -61 0 -28 -27 -44 -75 -44 -28 0 -44 7 -65 30 -24 26 -35 30
-79 30 -41 0 -51 -3 -51 -16 0 -34 42 -83 92 -108 122 -61 273 -10 293 98 14
71 -37 122 -152 150 -69 17 -113 39 -113 56 0 40 95 55 130 20 15 -15 33 -20
71 -20 48 0 50 1 43 23 -13 41 -43 75 -84 91 -54 21 -135 20 -187 -3z"/>
<path d="M11702 296 c3 -158 5 -177 24 -202 35 -47 70 -67 127 -72 60 -5 123
20 151 60 l16 22 0 -21 c0 -44 10 -53 61 -53 l49 0 0 220 0 220 -60 0 -60 0 0
-135 c0 -178 -18 -215 -104 -215 -84 0 -96 26 -96 210 l0 140 -56 0 -55 0 3
-174z"/>
<path d="M13309 448 c79 -200 162 -384 175 -386 14 -3 14 -6 0 -33 l-15 -30
61 3 61 3 100 225 c54 124 99 228 99 232 0 5 -26 8 -57 8 l-58 0 -60 -146
c-33 -80 -63 -148 -66 -150 -3 -2 -33 64 -65 146 l-59 150 -62 0 c-61 0 -62
-1 -54 -22z"/>
</g>
</svg>
